<svg id="svg" version="1.1" xmlns="http://www.w3.org/2000/svg" xmlns:xlink="http://www.w3.org/1999/xlink" width="400" height="114.34440260184869" viewBox="0, 0, 400,114.34440260184869"><g id="svgg"><path id="path0" d="M48.083 39.492 C 39.099 40.552,31.210 47.122,28.584 55.731 C 27.564 59.077,27.616 57.820,27.550 80.875 L 27.489 102.000 34.578 102.000 L 41.667 102.000 41.667 94.000 L 41.667 86.000 48.000 86.000 L 54.333 86.000 54.333 78.919 L 54.333 71.837 48.042 71.794 L 41.750 71.750 41.699 67.167 C 41.622 60.230,41.986 58.810,44.483 56.319 C 48.194 52.616,53.618 52.618,57.350 56.324 C 58.515 57.480,58.845 58.013,59.883 60.417 C 60.239 61.242,60.587 61.976,60.656 62.049 C 60.725 62.122,62.800 61.307,65.266 60.238 C 67.732 59.170,70.631 57.915,71.708 57.451 C 72.785 56.987,73.667 56.533,73.667 56.442 C 73.667 56.078,71.711 51.989,70.865 50.583 C 66.164 42.776,57.207 38.415,48.083 39.492 " stroke="none" fill="#fbfbfb" fill-rule="evenodd"></path><path id="path1" d="M61.167 5.631 C 61.167 6.089,60.510 7.851,60.153 8.353 C 59.977 8.600,59.833 8.884,59.833 8.984 C 59.833 9.084,59.775 9.167,59.703 9.167 C 59.631 9.167,59.447 9.373,59.295 9.625 C 58.763 10.505,55.269 13.833,54.877 13.833 C 54.784 13.833,54.608 13.953,54.486 14.100 C 54.215 14.427,52.196 15.795,51.313 16.250 C 50.958 16.433,50.648 16.658,50.625 16.749 C 50.602 16.840,50.490 16.893,50.375 16.867 C 49.878 16.753,50.230 17.167,50.907 17.495 C 51.315 17.693,51.821 17.983,52.032 18.141 C 52.244 18.298,52.829 18.643,53.333 18.908 C 53.837 19.172,54.429 19.526,54.647 19.694 C 54.866 19.862,55.122 20.000,55.215 20.000 C 55.309 20.000,55.617 20.171,55.901 20.381 C 56.185 20.590,56.604 20.852,56.833 20.963 C 57.063 21.074,57.381 21.240,57.542 21.332 C 58.123 21.667,58.429 21.836,59.083 22.187 C 59.450 22.384,59.788 22.595,59.833 22.656 C 59.879 22.718,60.254 22.944,60.667 23.159 C 61.849 23.776,62.056 23.895,62.586 24.259 C 62.859 24.447,63.571 24.853,64.167 25.161 C 64.762 25.470,65.287 25.772,65.333 25.833 C 65.406 25.929,66.589 26.600,68.259 27.492 C 68.539 27.642,68.989 27.915,69.259 28.098 C 69.529 28.282,69.938 28.524,70.167 28.635 C 70.572 28.831,71.566 29.404,72.583 30.028 C 72.858 30.197,73.308 30.447,73.583 30.583 C 73.858 30.720,74.496 31.092,75.000 31.410 C 75.935 32.000,76.627 32.392,77.667 32.919 C 77.987 33.082,78.362 33.308,78.500 33.421 C 78.637 33.534,79.275 33.905,79.917 34.246 C 80.558 34.588,81.202 34.972,81.346 35.100 C 81.491 35.228,81.735 35.333,81.888 35.333 C 82.041 35.333,82.167 35.395,82.167 35.470 C 82.167 35.546,82.485 35.778,82.875 35.985 C 84.354 36.774,85.092 37.202,85.333 37.411 C 85.740 37.763,86.324 37.885,86.418 37.636 C 87.447 34.896,88.785 23.734,89.089 15.354 C 89.218 11.827,89.156 11.618,88.387 12.986 C 88.164 13.384,87.873 13.818,87.740 13.950 C 87.608 14.082,87.500 14.244,87.500 14.308 C 87.500 14.613,84.788 17.163,83.663 17.917 C 82.565 18.652,79.704 20.000,79.241 20.000 C 79.104 20.000,78.374 20.161,77.621 20.358 C 75.656 20.872,70.663 20.868,68.341 20.351 C 67.475 20.158,66.603 20.000,66.405 20.000 C 66.049 20.000,66.047 19.987,66.282 19.042 C 67.163 15.507,66.515 10.603,64.870 8.343 C 64.326 7.596,62.970 6.167,62.805 6.167 C 62.737 6.167,62.405 5.979,62.067 5.750 C 61.339 5.255,61.167 5.233,61.167 5.631 M91.621 72.500 C 91.388 72.683,91.078 72.833,90.932 72.833 C 90.786 72.833,90.667 72.895,90.667 72.970 C 90.667 73.046,90.310 73.284,89.875 73.499 C 89.440 73.714,89.046 73.940,89.000 74.001 C 88.954 74.062,88.255 74.481,87.445 74.931 C 86.636 75.381,85.849 75.828,85.695 75.923 C 85.542 76.018,85.042 76.303,84.583 76.556 C 84.125 76.809,83.337 77.271,82.833 77.583 C 82.329 77.894,81.682 78.258,81.395 78.391 C 81.109 78.524,80.823 78.715,80.761 78.816 C 80.698 78.917,80.534 79.000,80.396 79.000 C 80.258 79.000,79.899 79.188,79.598 79.417 C 79.298 79.646,78.971 79.833,78.871 79.833 C 78.772 79.833,78.591 79.932,78.470 80.052 C 78.349 80.172,78.025 80.388,77.750 80.533 C 76.442 81.222,76.029 81.455,75.574 81.764 C 75.304 81.947,74.671 82.311,74.167 82.573 C 73.662 82.834,73.137 83.139,73.000 83.250 C 72.862 83.361,72.262 83.714,71.667 84.034 C 71.071 84.354,70.096 84.907,69.500 85.262 C 68.258 86.002,67.810 86.257,66.756 86.821 C 66.340 87.044,66.000 87.287,66.000 87.363 C 66.000 87.438,65.859 87.500,65.687 87.500 C 65.515 87.500,65.283 87.610,65.172 87.744 C 65.061 87.877,64.828 88.032,64.655 88.087 C 64.340 88.187,62.668 89.158,62.286 89.464 C 62.175 89.553,61.596 89.872,61.000 90.174 C 60.404 90.475,59.804 90.813,59.667 90.924 C 59.529 91.035,58.892 91.405,58.250 91.746 C 57.608 92.088,56.971 92.457,56.833 92.567 C 56.696 92.677,56.302 92.911,55.958 93.088 C 55.615 93.265,55.333 93.467,55.333 93.538 C 55.333 93.609,55.193 93.667,55.020 93.667 C 54.848 93.667,54.617 93.776,54.505 93.910 C 54.394 94.044,54.141 94.204,53.943 94.265 C 53.745 94.327,53.358 94.536,53.083 94.730 C 52.532 95.119,52.247 95.282,50.465 96.228 C 49.797 96.583,49.212 96.928,49.167 96.996 C 49.121 97.063,48.566 97.391,47.935 97.725 C 47.303 98.059,46.703 98.399,46.601 98.482 C 46.500 98.564,46.042 98.840,45.583 99.094 C 45.125 99.347,44.525 99.691,44.250 99.857 C 43.975 100.022,43.450 100.319,43.083 100.515 C 42.181 100.998,41.833 101.326,41.833 101.692 C 41.833 101.946,41.701 102.000,41.072 102.000 C 40.517 102.000,40.163 102.113,39.765 102.417 C 39.464 102.646,39.142 102.833,39.048 102.833 C 38.955 102.833,38.699 102.971,38.481 103.139 C 38.262 103.307,37.671 103.662,37.167 103.927 C 36.662 104.192,36.025 104.570,35.750 104.768 C 35.475 104.966,35.088 105.177,34.890 105.237 C 34.143 105.463,34.089 105.804,34.779 105.926 C 35.130 105.988,35.942 106.179,36.583 106.351 C 58.826 112.297,78.993 101.491,89.752 77.859 C 90.143 77.002,90.495 76.365,90.537 76.442 C 90.578 76.520,90.589 76.488,90.560 76.372 C 90.489 76.084,91.023 74.994,91.185 75.095 C 91.257 75.139,91.286 75.020,91.249 74.830 C 91.174 74.439,91.314 73.968,91.476 74.068 C 91.535 74.104,91.600 73.898,91.621 73.610 C 91.642 73.322,91.737 73.060,91.831 73.029 C 91.925 72.997,91.958 72.900,91.903 72.812 C 91.849 72.724,91.895 72.543,92.006 72.409 C 92.289 72.068,92.120 72.108,91.621 72.500 " stroke="none" fill="#5d84de" fill-rule="evenodd"></path><path id="path2" d="M89.106 15.792 C 88.574 32.902,85.568 45.686,79.880 55.030 C 79.117 56.282,79.157 56.292,80.917 55.270 C 82.379 54.421,82.801 54.184,83.744 53.679 C 84.160 53.456,84.500 53.213,84.500 53.137 C 84.500 53.062,84.641 53.000,84.813 53.000 C 84.985 53.000,85.214 52.894,85.321 52.764 C 85.429 52.635,85.832 52.370,86.217 52.176 C 86.602 51.981,87.217 51.641,87.583 51.419 C 87.950 51.198,88.438 50.922,88.667 50.808 C 88.896 50.693,89.271 50.475,89.500 50.322 C 90.262 49.813,90.730 49.741,90.623 50.148 C 90.568 50.359,90.598 50.459,90.697 50.398 C 90.788 50.342,90.825 50.154,90.780 49.981 C 90.735 49.808,90.778 49.667,90.877 49.667 C 90.975 49.667,91.012 49.624,90.960 49.571 C 90.907 49.518,90.932 49.237,91.016 48.946 C 91.100 48.655,91.209 48.079,91.258 47.667 C 91.336 47.023,91.423 46.533,91.598 45.750 C 93.626 36.670,92.986 22.049,90.219 14.250 C 89.223 11.444,89.242 11.417,89.106 15.792 M13.944 35.333 C 13.409 35.883,13.010 36.333,13.056 36.333 C 13.103 36.333,12.941 36.546,12.696 36.807 C 11.881 37.672,10.522 39.579,9.924 40.697 C 9.694 41.125,9.430 41.524,9.337 41.581 C 9.243 41.639,9.167 41.832,9.167 42.010 C 9.167 42.188,9.102 42.333,9.022 42.333 C 8.943 42.333,8.722 42.690,8.532 43.125 C 8.341 43.560,8.076 44.104,7.943 44.333 C 7.489 45.114,6.167 48.114,6.167 48.364 C 6.167 48.451,5.979 48.931,5.750 49.432 C 5.521 49.933,5.333 50.456,5.333 50.594 C 5.333 50.731,5.213 51.123,5.066 51.464 C 4.919 51.804,4.700 52.496,4.580 53.000 C 4.459 53.504,4.248 54.329,4.111 54.833 C 3.741 56.191,3.193 58.810,3.099 59.667 C 3.054 60.079,2.924 61.167,2.811 62.083 C 2.541 64.265,2.539 69.496,2.806 71.500 C 2.923 72.371,3.053 73.383,3.095 73.750 C 3.210 74.743,3.823 77.258,4.273 78.583 C 4.490 79.225,4.668 79.847,4.667 79.966 C 4.667 80.085,4.817 80.493,5.000 80.873 C 5.183 81.252,5.333 81.627,5.333 81.705 C 5.333 81.857,7.196 85.688,7.543 86.250 C 7.657 86.433,7.918 86.822,8.125 87.114 C 8.331 87.406,8.500 87.687,8.500 87.738 C 8.500 87.861,10.133 90.166,10.481 90.535 C 10.629 90.692,10.900 91.020,11.083 91.264 C 11.863 92.303,16.365 96.667,16.657 96.667 C 16.745 96.667,16.877 96.765,16.950 96.885 C 17.125 97.172,19.382 98.809,20.583 99.519 C 20.767 99.628,20.314 99.086,19.577 98.316 C 17.994 96.660,17.047 95.413,16.318 94.023 L 15.787 93.008 16.185 92.675 C 16.404 92.492,16.733 92.292,16.917 92.231 C 17.100 92.169,17.475 91.951,17.750 91.745 C 18.025 91.540,18.412 91.323,18.610 91.263 C 18.808 91.203,19.061 91.044,19.172 90.910 C 19.283 90.776,19.515 90.667,19.687 90.667 C 19.859 90.667,20.000 90.605,20.000 90.530 C 20.000 90.454,20.319 90.224,20.708 90.018 C 21.098 89.813,22.129 89.227,23.000 88.718 C 23.871 88.208,25.071 87.528,25.667 87.205 C 26.262 86.883,26.869 86.516,27.015 86.391 C 27.250 86.189,27.292 84.787,27.395 73.714 C 27.520 60.327,27.592 59.112,28.435 56.201 C 30.992 47.374,38.806 40.664,47.881 39.503 L 49.083 39.349 47.753 39.426 C 44.269 39.627,37.300 42.600,34.535 45.064 C 34.240 45.326,34.087 45.364,33.868 45.229 C 33.711 45.132,33.208 44.846,32.750 44.593 C 32.292 44.340,31.804 44.043,31.667 43.932 C 31.529 43.821,30.929 43.478,30.333 43.170 C 29.738 42.863,29.212 42.561,29.167 42.501 C 29.121 42.440,28.858 42.277,28.583 42.139 C 28.308 42.001,27.783 41.712,27.417 41.497 C 27.050 41.282,26.521 40.986,26.241 40.838 C 25.961 40.690,25.511 40.414,25.241 40.223 C 24.971 40.033,24.588 39.827,24.390 39.765 C 24.192 39.704,23.939 39.544,23.828 39.410 C 23.717 39.276,23.485 39.167,23.313 39.167 C 23.141 39.167,23.000 39.105,23.000 39.030 C 23.000 38.954,22.681 38.723,22.292 38.516 C 21.902 38.308,21.208 37.921,20.750 37.654 C 20.292 37.388,19.617 37.009,19.250 36.813 C 18.883 36.616,18.546 36.403,18.500 36.340 C 18.454 36.276,18.154 36.089,17.833 35.924 C 17.512 35.760,17.025 35.509,16.750 35.367 C 16.475 35.225,16.018 34.935,15.734 34.721 C 15.040 34.199,15.051 34.195,13.944 35.333 M124.596 35.929 C 120.674 36.589,116.298 39.492,114.041 42.932 C 113.311 44.046,112.833 44.868,112.833 45.012 C 112.833 45.103,112.727 45.345,112.598 45.548 C 112.252 46.089,111.410 48.738,111.156 50.083 C 110.985 50.984,110.922 54.792,110.879 66.792 L 110.822 82.333 117.661 82.333 L 124.500 82.333 124.500 76.500 L 124.500 70.667 126.750 70.667 L 129.000 70.667 129.000 64.500 L 129.000 58.333 126.728 58.333 L 124.455 58.333 124.544 54.875 C 124.675 49.753,125.284 48.490,127.617 48.505 C 128.775 48.513,130.500 49.733,130.500 50.545 C 130.500 51.004,131.005 51.280,131.245 50.952 C 131.360 50.795,131.498 50.667,131.552 50.667 C 131.607 50.667,132.161 50.287,132.784 49.823 C 133.407 49.359,134.093 48.852,134.308 48.698 C 134.524 48.543,134.952 48.229,135.260 48.000 C 135.568 47.771,136.066 47.410,136.368 47.198 C 136.670 46.986,137.644 46.274,138.532 45.615 C 139.420 44.956,140.564 44.119,141.074 43.755 C 141.583 43.391,142.000 42.987,142.000 42.856 C 142.000 42.582,140.651 40.948,139.918 40.334 C 139.644 40.105,139.260 39.748,139.066 39.542 C 138.871 39.335,138.643 39.167,138.560 39.167 C 138.476 39.167,138.289 39.029,138.145 38.860 C 137.862 38.529,134.987 36.833,134.710 36.833 C 134.618 36.833,134.214 36.689,133.813 36.512 C 132.021 35.722,127.520 35.438,124.596 35.929 M143.667 59.583 L 143.667 82.333 150.083 82.333 L 156.500 82.333 156.500 59.583 L 156.500 36.833 150.083 36.833 L 143.667 36.833 143.667 59.583 M62.118 42.173 C 66.654 44.636,69.948 48.237,72.514 53.536 C 73.473 55.515,73.443 55.133,72.463 52.870 C 70.494 48.327,66.547 44.183,62.046 41.935 C 60.291 41.058,60.336 41.204,62.118 42.173 M356.833 49.893 L 356.833 54.953 354.625 55.055 C 351.270 55.209,349.845 55.578,348.076 56.749 C 340.767 61.587,341.346 76.335,348.931 78.504 C 352.890 79.636,356.558 78.300,357.921 75.228 L 358.355 74.250 358.824 75.250 C 359.081 75.800,359.529 76.755,359.819 77.372 C 360.108 77.989,360.479 78.566,360.644 78.654 C 360.951 78.819,363.382 78.263,364.622 77.744 C 364.944 77.610,365.381 77.500,365.594 77.500 C 366.214 77.500,366.204 77.281,365.515 75.782 C 365.157 75.003,364.650 73.590,364.390 72.641 L 363.917 70.917 363.868 58.485 L 363.820 46.054 362.499 45.770 C 361.773 45.614,360.558 45.413,359.798 45.324 C 359.038 45.235,358.117 45.090,357.750 45.001 C 357.383 44.913,357.027 44.839,356.958 44.837 C 356.890 44.835,356.833 47.110,356.833 49.893 M275.083 46.822 C 273.721 47.004,271.143 48.062,270.333 48.771 C 267.842 50.953,267.112 52.516,267.108 55.667 L 267.105 57.917 267.724 59.175 C 268.337 60.421,269.741 62.167,270.131 62.167 C 270.242 62.167,270.333 62.236,270.333 62.321 C 270.333 62.606,274.938 65.167,275.451 65.167 C 275.569 65.167,275.667 65.232,275.667 65.313 C 275.667 65.393,276.023 65.624,276.458 65.826 C 277.536 66.325,278.527 66.874,278.795 67.121 C 278.917 67.234,279.110 67.384,279.225 67.455 C 280.297 68.117,280.544 70.507,279.680 71.869 C 278.178 74.238,275.664 74.184,270.771 71.680 C 268.325 70.427,268.541 70.401,267.777 72.042 C 267.425 72.798,266.952 73.800,266.726 74.270 C 266.152 75.462,266.281 75.818,267.468 76.312 C 267.990 76.530,268.792 76.882,269.250 77.094 C 272.094 78.412,275.333 79.117,277.750 78.946 C 280.027 78.784,283.340 77.713,283.991 76.927 C 284.110 76.784,284.302 76.667,284.418 76.667 C 284.843 76.667,286.701 74.455,287.205 73.349 C 288.446 70.626,288.481 66.338,287.278 64.328 C 286.550 63.112,284.725 61.333,284.205 61.333 C 284.108 61.333,284.003 61.271,283.972 61.194 C 283.922 61.068,282.516 60.368,280.500 59.466 C 279.490 59.014,279.378 58.958,278.417 58.424 C 272.179 54.959,275.526 49.781,282.083 52.751 C 282.633 53.000,283.421 53.352,283.833 53.533 C 284.246 53.715,284.754 53.945,284.962 54.045 C 285.447 54.278,285.523 54.184,286.496 52.167 C 286.562 52.029,286.890 51.417,287.225 50.807 C 287.986 49.422,287.978 49.407,286.117 48.515 C 282.814 46.933,278.833 46.322,275.083 46.822 M176.500 48.441 C 175.232 48.688,172.783 49.340,172.304 49.559 C 171.999 49.699,171.487 49.929,171.167 50.072 C 163.519 53.478,159.638 62.602,162.194 71.167 C 162.450 72.024,164.015 75.167,164.187 75.167 C 164.267 75.167,164.333 75.252,164.333 75.357 C 164.333 75.715,166.887 78.479,168.043 79.372 C 169.572 80.554,169.764 80.673,171.620 81.579 C 172.282 81.902,172.903 82.167,173.001 82.167 C 173.098 82.167,173.644 82.332,174.214 82.533 C 175.872 83.120,182.160 83.075,184.092 82.463 C 187.987 81.228,190.935 79.039,193.803 75.250 C 196.153 72.145,197.170 65.975,196.069 61.500 C 195.665 59.857,194.342 56.824,193.737 56.154 C 193.607 56.009,193.500 55.832,193.500 55.760 C 193.500 55.382,190.090 52.014,189.000 51.315 C 186.955 50.005,186.667 49.833,186.508 49.833 C 186.417 49.833,186.021 49.690,185.629 49.514 C 183.563 48.590,178.687 48.016,176.500 48.441 M214.333 65.501 L 214.333 78.199 220.042 78.123 C 226.149 78.042,227.431 77.873,228.692 76.980 C 228.936 76.808,229.202 76.667,229.285 76.667 C 229.504 76.667,230.814 75.344,231.265 74.667 C 233.279 71.642,231.653 66.373,228.356 65.239 L 227.766 65.036 228.341 64.696 C 233.079 61.891,232.653 55.562,227.583 53.425 L 226.417 52.933 220.375 52.868 L 214.333 52.802 214.333 65.501 M47.744 54.215 C 42.802 56.385,41.670 58.838,41.798 67.109 L 41.868 71.634 44.226 71.748 C 54.823 72.263,60.600 71.249,66.712 67.799 C 69.767 66.075,69.868 65.918,68.417 65.153 C 68.142 65.008,67.617 64.714,67.250 64.500 C 66.038 63.791,65.258 63.348,64.583 62.983 C 64.217 62.784,63.879 62.572,63.833 62.510 C 63.394 61.922,62.349 61.693,61.530 62.004 C 60.566 62.370,60.568 62.372,60.016 60.979 C 59.705 60.194,59.537 59.992,58.989 59.745 C 58.628 59.582,58.333 59.386,58.333 59.308 C 58.333 59.230,58.183 59.167,58.000 59.167 C 57.817 59.167,57.667 59.105,57.667 59.030 C 57.667 58.954,57.348 58.726,56.958 58.522 C 56.569 58.318,55.875 57.931,55.417 57.662 C 54.958 57.393,54.246 56.982,53.833 56.749 C 53.421 56.516,52.858 56.189,52.583 56.023 C 51.368 55.290,50.533 54.816,49.873 54.484 C 49.482 54.288,49.121 54.062,49.071 53.981 C 48.936 53.761,48.672 53.808,47.744 54.215 M301.667 55.044 C 301.621 55.088,301.079 55.172,300.462 55.230 C 295.276 55.717,291.288 61.038,291.264 67.500 C 291.255 69.943,292.364 74.569,293.105 75.185 C 293.231 75.289,293.333 75.461,293.333 75.568 C 293.333 76.293,295.927 78.104,297.667 78.593 C 301.448 79.657,304.672 78.375,306.179 75.208 C 306.364 74.819,306.586 74.500,306.673 74.500 C 306.832 74.500,307.831 76.558,307.837 76.898 C 307.847 77.483,308.850 78.667,309.337 78.667 C 309.903 78.667,312.071 78.114,312.957 77.744 C 313.278 77.610,313.677 77.500,313.844 77.500 C 314.434 77.500,314.333 76.617,313.576 75.152 C 312.588 73.242,312.442 71.903,312.370 64.086 C 312.299 56.298,312.290 56.223,311.456 56.103 C 311.160 56.061,309.979 55.872,308.833 55.684 C 307.688 55.495,306.375 55.306,305.917 55.263 C 304.062 55.087,301.745 54.968,301.667 55.044 M326.167 55.231 C 324.827 55.461,322.809 56.211,322.488 56.598 C 322.381 56.727,322.205 56.833,322.098 56.833 C 321.895 56.833,320.460 58.222,319.769 59.088 C 316.812 62.792,316.253 69.662,318.523 74.413 C 321.239 80.099,329.302 80.611,332.015 75.270 L 332.581 74.155 332.893 74.869 C 333.065 75.262,333.384 75.979,333.603 76.462 C 333.821 76.945,334.000 77.441,334.000 77.565 C 334.000 78.046,334.681 78.667,335.209 78.667 C 335.755 78.667,335.876 78.637,338.250 77.911 C 339.075 77.658,339.844 77.428,339.958 77.398 C 340.262 77.319,340.214 76.833,339.830 76.117 C 338.413 73.472,338.130 71.426,338.046 63.217 L 337.975 56.183 337.196 56.075 C 336.767 56.016,335.854 55.831,335.167 55.664 C 332.765 55.082,328.288 54.866,326.167 55.231 M377.832 55.231 C 377.053 55.351,376.175 55.573,375.882 55.725 C 375.589 55.876,375.268 56.000,375.167 56.000 C 374.685 56.000,371.667 58.363,371.667 58.741 C 371.667 58.811,371.498 59.076,371.292 59.330 C 370.300 60.550,369.491 62.460,368.819 65.167 C 368.245 67.480,369.368 73.797,370.599 75.180 C 370.728 75.325,370.834 75.512,370.834 75.596 C 370.840 76.421,373.247 78.131,375.011 78.565 C 379.005 79.546,382.149 78.381,383.598 75.383 C 384.135 74.273,384.301 74.236,384.587 75.167 C 384.789 75.822,385.868 78.052,386.139 78.375 C 386.530 78.839,388.539 78.545,390.457 77.744 C 390.778 77.610,391.177 77.500,391.344 77.500 C 391.976 77.500,391.937 77.291,390.668 73.833 C 390.029 72.092,389.861 70.002,389.726 62.083 C 389.624 56.149,389.597 56.000,388.613 56.000 C 388.313 56.000,387.396 55.856,386.576 55.681 C 383.805 55.089,380.021 54.894,377.832 55.231 M57.046 56.305 C 57.668 56.971,58.398 57.869,58.668 58.300 C 59.232 59.198,59.352 59.098,58.805 58.186 C 58.219 57.208,57.384 56.234,56.626 55.645 C 56.041 55.190,56.114 55.305,57.046 56.305 M226.104 56.366 C 228.127 57.676,228.684 61.167,227.039 62.218 C 226.923 62.292,226.698 62.487,226.539 62.652 C 225.870 63.345,224.751 63.553,221.292 63.627 L 218.000 63.697 218.000 59.749 L 218.000 55.801 221.708 55.861 C 225.398 55.921,225.420 55.923,226.104 56.366 M234.167 58.412 C 234.167 58.547,234.354 59.067,234.583 59.568 C 234.813 60.069,235.003 60.540,235.006 60.614 C 235.009 60.689,235.156 61.050,235.333 61.417 C 235.510 61.783,235.658 62.169,235.661 62.273 C 235.664 62.377,235.900 62.977,236.185 63.606 C 237.187 65.819,237.333 66.164,237.333 66.327 C 237.333 66.417,237.475 66.812,237.648 67.204 C 238.009 68.022,238.629 69.505,239.167 70.833 C 239.371 71.337,239.712 72.162,239.926 72.667 C 240.140 73.171,240.516 74.108,240.761 74.750 C 241.006 75.392,241.355 76.208,241.535 76.565 C 241.963 77.408,241.876 78.047,241.092 79.833 C 240.750 80.612,240.431 81.400,240.384 81.583 C 240.337 81.767,240.123 82.292,239.907 82.750 C 239.362 83.909,238.317 86.506,238.214 86.958 C 238.129 87.330,238.145 87.333,239.939 87.329 L 241.750 87.324 242.225 86.204 C 242.487 85.588,242.851 84.708,243.036 84.250 C 243.220 83.792,243.541 83.004,243.750 82.500 C 243.959 81.996,244.296 81.171,244.500 80.667 C 244.704 80.162,245.050 79.319,245.269 78.792 C 245.488 78.265,245.846 77.402,246.065 76.875 C 246.283 76.348,246.629 75.504,246.833 75.000 C 247.037 74.496,247.383 73.652,247.602 73.125 C 247.821 72.598,248.179 71.735,248.398 71.208 C 248.617 70.681,248.945 69.875,249.128 69.417 C 249.695 67.996,250.127 66.956,250.572 65.938 C 250.807 65.400,251.000 64.893,251.000 64.811 C 251.000 64.730,251.144 64.345,251.321 63.957 C 251.842 62.806,253.283 59.294,253.475 58.703 L 253.653 58.156 251.785 58.203 L 249.917 58.250 249.652 59.000 C 249.507 59.413,249.295 59.975,249.181 60.250 C 248.952 60.801,248.763 61.302,248.082 63.167 C 247.831 63.854,247.560 64.488,247.479 64.575 C 247.399 64.662,247.333 64.840,247.333 64.971 C 247.333 65.101,247.155 65.630,246.937 66.146 C 246.718 66.661,246.333 67.646,246.081 68.333 C 245.828 69.021,245.481 69.901,245.311 70.290 C 245.140 70.678,245.000 71.077,245.000 71.176 C 245.000 71.274,244.813 71.765,244.583 72.266 C 244.354 72.767,244.166 73.306,244.164 73.463 C 244.160 73.899,243.920 73.468,243.395 72.083 C 243.151 71.442,242.898 70.842,242.832 70.750 C 242.766 70.658,242.672 70.396,242.624 70.167 C 242.542 69.778,242.405 69.418,241.418 67.000 C 241.212 66.496,240.951 65.821,240.838 65.500 C 240.389 64.232,240.134 63.576,239.824 62.896 C 239.646 62.505,239.500 62.108,239.500 62.014 C 239.500 61.919,239.357 61.521,239.182 61.129 C 239.007 60.737,238.661 59.910,238.413 59.292 L 237.962 58.167 236.065 58.167 C 234.506 58.167,234.167 58.210,234.167 58.412 M356.333 60.481 C 357.327 61.205,356.881 69.285,355.733 71.350 C 352.623 76.947,349.336 71.883,350.802 63.750 C 351.355 60.678,354.252 58.966,356.333 60.481 M381.716 60.201 C 382.437 60.479,382.667 61.111,382.667 62.825 C 382.667 63.655,382.725 64.333,382.797 64.333 C 383.097 64.333,381.984 70.473,381.523 71.361 C 380.458 73.408,380.166 73.667,378.917 73.667 C 377.470 73.667,377.160 73.302,376.648 71.000 C 375.131 64.178,377.720 58.660,381.716 60.201 M304.237 60.277 C 304.557 60.430,304.871 60.674,304.935 60.819 C 305.141 61.290,305.292 65.054,305.146 66.114 C 305.068 66.681,304.937 67.747,304.855 68.484 C 304.403 72.520,301.452 75.249,299.943 73.025 C 298.359 70.691,298.415 63.945,300.039 61.540 C 300.940 60.205,302.869 59.625,304.237 60.277 M330.333 60.397 C 331.098 60.745,331.187 67.577,330.457 69.917 C 329.013 74.549,325.894 75.212,324.976 71.083 C 324.327 68.168,324.917 62.426,325.988 61.239 C 326.993 60.125,328.916 59.752,330.333 60.397 M180.397 61.199 C 180.775 61.309,181.401 61.655,181.790 61.968 C 186.061 65.409,181.902 72.423,177.033 69.990 C 171.852 67.401,174.842 59.586,180.397 61.199 M224.551 66.685 C 227.765 67.183,229.367 69.616,228.321 72.411 C 227.530 74.525,226.264 75.032,221.542 75.125 L 218.000 75.195 218.000 70.848 L 218.000 66.500 220.676 66.500 C 222.148 66.500,223.892 66.583,224.551 66.685 M87.107 83.375 L 86.809 83.917 87.155 83.523 C 87.453 83.183,87.604 82.833,87.453 82.833 C 87.427 82.833,87.271 83.077,87.107 83.375 M85.674 85.707 C 74.124 103.876,57.250 111.225,37.500 106.689 C 36.721 106.510,35.783 106.322,35.417 106.271 L 34.750 106.178 35.417 106.403 C 43.664 109.194,53.078 109.706,59.833 107.731 C 62.594 106.925,64.048 106.367,66.478 105.182 C 68.265 104.311,68.445 104.208,69.974 103.183 C 70.739 102.670,71.494 102.175,71.651 102.083 C 72.216 101.754,75.167 99.289,75.167 99.146 C 75.167 99.066,75.252 99.000,75.355 99.000 C 75.899 99.000,80.163 94.208,82.533 90.935 C 82.872 90.466,83.209 90.008,83.283 89.917 C 83.357 89.825,83.623 89.431,83.875 89.042 C 84.127 88.652,84.521 88.048,84.750 87.699 C 84.979 87.351,85.167 86.976,85.167 86.866 C 85.167 86.756,85.228 86.667,85.304 86.667 C 85.379 86.667,85.609 86.348,85.815 85.958 C 86.020 85.569,86.342 85.003,86.531 84.700 C 86.719 84.398,86.844 84.122,86.809 84.087 C 86.774 84.052,86.263 84.780,85.674 85.707 " stroke="none" fill="#9042c5" fill-rule="evenodd"></path><path id="path3" d="M27.321 11.702 C 27.314 12.462,27.281 13.227,27.248 13.402 C 27.215 13.577,27.170 14.027,27.148 14.402 C 27.126 14.777,27.027 15.191,26.929 15.324 C 26.799 15.498,26.801 15.533,26.939 15.451 C 27.043 15.389,27.305 15.475,27.522 15.642 C 27.739 15.809,28.404 16.211,29.000 16.535 C 30.833 17.533,32.912 18.730,33.000 18.840 C 33.046 18.897,33.440 19.120,33.875 19.335 C 34.310 19.550,34.667 19.787,34.667 19.863 C 34.667 19.938,34.793 20.000,34.948 20.000 C 35.102 20.000,35.402 20.163,35.614 20.362 C 35.826 20.562,36.000 20.637,36.000 20.529 C 36.000 20.421,35.927 20.333,35.839 20.333 C 35.750 20.333,35.720 20.222,35.772 20.087 C 35.871 19.829,34.614 17.350,33.658 15.917 C 32.555 14.264,29.427 11.426,27.708 10.519 C 27.334 10.322,27.333 10.324,27.321 11.702 M49.423 17.415 C 49.152 17.637,48.896 17.785,48.855 17.744 C 48.814 17.703,48.690 17.745,48.579 17.837 C 48.468 17.929,46.376 19.004,43.931 20.226 C 40.014 22.183,39.518 22.474,39.760 22.675 C 40.064 22.927,39.996 22.887,42.193 24.133 C 44.917 25.678,45.249 25.880,45.306 26.025 C 45.336 26.103,45.496 26.167,45.660 26.167 C 45.825 26.167,46.050 26.276,46.161 26.410 C 46.272 26.544,46.525 26.703,46.723 26.763 C 46.921 26.823,47.308 27.040,47.583 27.245 C 47.858 27.451,48.245 27.670,48.443 27.732 C 48.641 27.795,48.894 27.956,49.005 28.090 C 49.117 28.224,49.316 28.333,49.448 28.333 C 49.581 28.333,49.935 28.521,50.235 28.750 C 50.536 28.979,50.863 29.167,50.962 29.167 C 51.062 29.167,51.245 29.268,51.369 29.393 C 51.493 29.517,52.094 29.884,52.703 30.207 C 53.313 30.530,54.023 30.938,54.281 31.113 C 54.539 31.287,55.163 31.644,55.667 31.906 C 56.171 32.168,56.696 32.475,56.833 32.588 C 56.971 32.702,57.413 32.972,57.815 33.189 C 58.218 33.406,58.971 33.811,59.489 34.089 C 60.007 34.367,60.664 34.761,60.950 34.964 C 61.235 35.167,61.545 35.333,61.639 35.333 C 61.733 35.333,61.909 35.432,62.030 35.552 C 62.151 35.672,62.606 35.948,63.042 36.165 C 63.477 36.382,63.833 36.621,63.833 36.696 C 63.833 36.772,63.959 36.833,64.112 36.833 C 64.265 36.833,64.509 36.940,64.654 37.070 C 64.798 37.200,65.442 37.586,66.083 37.927 C 66.725 38.269,67.362 38.639,67.500 38.750 C 67.637 38.861,68.162 39.169,68.667 39.434 C 69.171 39.699,70.159 40.266,70.862 40.693 C 71.566 41.120,72.290 41.517,72.472 41.575 C 72.654 41.632,72.894 41.789,73.005 41.923 C 73.117 42.057,73.316 42.167,73.449 42.167 C 73.582 42.167,73.795 42.260,73.923 42.375 C 74.496 42.889,74.668 43.000,74.889 43.000 C 75.019 43.000,75.217 43.110,75.328 43.244 C 75.439 43.377,75.692 43.536,75.890 43.596 C 76.088 43.656,76.475 43.868,76.750 44.067 C 77.025 44.265,77.438 44.522,77.667 44.637 C 77.896 44.753,78.458 45.070,78.917 45.342 C 79.375 45.615,79.956 45.919,80.208 46.018 C 80.460 46.118,80.667 46.250,80.667 46.311 C 80.667 46.610,83.196 47.721,83.344 47.487 C 83.861 46.667,85.762 40.929,86.240 38.750 C 86.300 38.475,86.382 38.137,86.422 38.000 C 86.473 37.828,86.364 37.742,86.071 37.725 C 85.838 37.712,85.520 37.587,85.365 37.448 C 85.096 37.206,84.425 36.811,82.875 35.985 C 82.485 35.778,82.167 35.546,82.167 35.470 C 82.167 35.395,82.041 35.333,81.888 35.333 C 81.735 35.333,81.491 35.228,81.346 35.100 C 81.202 34.972,80.558 34.588,79.917 34.246 C 79.275 33.905,78.637 33.534,78.500 33.421 C 78.362 33.308,77.987 33.082,77.667 32.919 C 76.627 32.392,75.935 32.000,75.000 31.410 C 74.496 31.092,73.858 30.720,73.583 30.583 C 73.115 30.350,72.246 29.849,71.083 29.141 C 70.808 28.973,70.396 28.745,70.167 28.634 C 69.938 28.524,69.529 28.282,69.259 28.098 C 68.989 27.915,68.539 27.642,68.259 27.492 C 66.589 26.600,65.406 25.929,65.333 25.833 C 65.287 25.772,64.762 25.470,64.167 25.161 C 63.571 24.853,62.859 24.447,62.586 24.259 C 62.056 23.895,61.849 23.776,60.667 23.159 C 60.254 22.944,59.879 22.718,59.833 22.656 C 59.788 22.595,59.450 22.384,59.083 22.187 C 58.429 21.836,58.123 21.667,57.542 21.332 C 57.381 21.240,57.063 21.074,56.833 20.963 C 56.604 20.852,56.185 20.590,55.901 20.381 C 55.617 20.171,55.309 20.000,55.215 20.000 C 55.122 20.000,54.866 19.862,54.647 19.694 C 54.429 19.526,53.837 19.173,53.333 18.911 C 52.829 18.648,52.304 18.343,52.167 18.233 C 51.930 18.044,50.035 16.993,49.955 17.006 C 49.934 17.009,49.695 17.193,49.423 17.415 M52.794 39.451 C 53.001 39.491,53.301 39.490,53.460 39.448 C 53.620 39.406,53.450 39.374,53.083 39.375 C 52.717 39.377,52.586 39.411,52.794 39.451 M94.748 63.336 C 94.691 63.429,94.405 63.619,94.114 63.758 C 93.822 63.898,93.283 64.194,92.917 64.417 C 92.550 64.639,91.899 65.010,91.470 65.241 C 91.041 65.472,90.643 65.737,90.585 65.830 C 90.528 65.924,90.335 66.000,90.157 66.000 C 89.979 66.000,89.833 66.062,89.833 66.137 C 89.833 66.213,89.515 66.439,89.125 66.640 C 88.735 66.842,88.042 67.231,87.583 67.504 C 87.125 67.778,86.450 68.162,86.083 68.357 C 85.717 68.552,85.379 68.762,85.333 68.823 C 85.287 68.884,84.764 69.185,84.169 69.491 C 83.575 69.797,82.900 70.171,82.669 70.322 C 81.982 70.772,81.620 70.980,80.883 71.347 C 80.499 71.539,80.096 71.801,79.988 71.931 C 79.881 72.061,79.652 72.167,79.480 72.167 C 79.307 72.167,79.167 72.228,79.167 72.304 C 79.167 72.379,78.848 72.606,78.458 72.807 C 78.069 73.008,77.375 73.397,76.917 73.671 C 76.458 73.945,75.708 74.372,75.250 74.620 C 74.792 74.868,74.296 75.149,74.148 75.244 C 74.000 75.339,73.513 75.627,73.065 75.884 C 72.617 76.142,71.875 76.571,71.417 76.838 C 70.958 77.106,70.343 77.446,70.049 77.594 C 69.756 77.743,69.428 77.970,69.321 78.099 C 69.213 78.228,69.018 78.333,68.885 78.333 C 68.753 78.333,68.406 78.512,68.114 78.731 C 67.822 78.949,67.415 79.179,67.208 79.242 C 67.002 79.305,66.833 79.418,66.833 79.495 C 66.833 79.571,66.627 79.716,66.375 79.816 C 66.123 79.917,65.542 80.223,65.083 80.496 C 64.086 81.092,63.457 81.450,62.480 81.978 C 62.079 82.195,61.637 82.465,61.500 82.579 C 61.362 82.692,60.725 83.070,60.083 83.418 C 59.442 83.766,58.617 84.224,58.250 84.437 C 57.883 84.649,57.283 84.986,56.917 85.184 C 56.550 85.382,56.212 85.595,56.167 85.656 C 56.121 85.718,55.746 85.945,55.333 86.160 C 54.532 86.579,54.139 86.801,53.083 87.426 C 52.717 87.644,52.066 88.010,51.637 88.241 C 51.208 88.472,50.810 88.737,50.752 88.830 C 50.694 88.924,50.508 89.000,50.337 89.000 C 50.167 89.000,50.003 89.066,49.972 89.147 C 49.942 89.228,49.529 89.509,49.056 89.772 C 46.325 91.289,45.328 91.875,45.242 92.012 C 45.190 92.097,45.001 92.167,44.823 92.167 C 44.646 92.167,44.500 92.227,44.500 92.300 C 44.500 92.374,44.181 92.604,43.792 92.812 C 43.402 93.020,42.821 93.334,42.500 93.511 L 41.917 93.833 41.829 89.875 C 41.765 86.980,41.736 88.089,41.723 94.000 C 41.713 98.446,41.742 101.933,41.787 101.750 C 41.909 101.253,42.149 101.017,42.990 100.566 C 43.408 100.342,43.975 100.023,44.250 99.857 C 44.525 99.691,45.125 99.347,45.583 99.094 C 46.042 98.840,46.500 98.564,46.601 98.482 C 46.703 98.399,47.303 98.059,47.935 97.725 C 48.566 97.391,49.121 97.063,49.167 96.996 C 49.212 96.928,49.797 96.583,50.465 96.228 C 52.247 95.282,52.532 95.119,53.083 94.730 C 53.358 94.536,53.745 94.327,53.943 94.265 C 54.141 94.204,54.394 94.044,54.505 93.910 C 54.617 93.776,54.848 93.667,55.020 93.667 C 55.193 93.667,55.333 93.609,55.333 93.538 C 55.333 93.467,55.615 93.265,55.958 93.088 C 56.302 92.911,56.696 92.677,56.833 92.567 C 56.971 92.457,57.608 92.088,58.250 91.746 C 58.892 91.405,59.529 91.035,59.667 90.924 C 59.804 90.813,60.404 90.475,61.000 90.174 C 61.596 89.872,62.175 89.553,62.286 89.464 C 62.668 89.158,64.340 88.187,64.655 88.087 C 64.828 88.032,65.061 87.877,65.172 87.744 C 65.283 87.610,65.515 87.500,65.687 87.500 C 65.859 87.500,66.000 87.438,66.000 87.363 C 66.000 87.287,66.340 87.044,66.756 86.821 C 67.810 86.257,68.258 86.002,69.500 85.262 C 70.096 84.907,71.071 84.354,71.667 84.034 C 72.262 83.714,72.862 83.361,73.000 83.250 C 73.137 83.139,73.662 82.834,74.167 82.573 C 74.671 82.311,75.304 81.947,75.574 81.764 C 76.029 81.455,76.442 81.222,77.750 80.533 C 78.025 80.388,78.349 80.172,78.470 80.052 C 78.591 79.932,78.772 79.833,78.871 79.833 C 78.971 79.833,79.298 79.646,79.598 79.417 C 79.899 79.188,80.258 79.000,80.396 79.000 C 80.534 79.000,80.698 78.917,80.761 78.816 C 80.823 78.715,81.109 78.524,81.395 78.391 C 81.682 78.258,82.329 77.894,82.833 77.583 C 83.337 77.271,84.125 76.809,84.583 76.556 C 85.042 76.303,85.542 76.018,85.695 75.923 C 85.849 75.828,86.636 75.381,87.445 74.931 C 88.255 74.481,88.954 74.062,89.000 74.001 C 89.046 73.940,89.440 73.714,89.875 73.499 C 90.310 73.284,90.667 73.046,90.667 72.970 C 90.667 72.895,90.812 72.833,90.990 72.833 C 91.168 72.833,91.360 72.759,91.416 72.668 C 91.472 72.576,91.683 72.417,91.884 72.314 C 92.186 72.159,92.213 72.165,92.042 72.346 C 91.799 72.603,91.770 72.833,91.981 72.833 C 92.062 72.833,92.167 72.702,92.216 72.542 C 92.264 72.381,92.539 71.612,92.826 70.833 C 93.751 68.328,94.841 64.572,94.868 63.797 C 94.877 63.548,94.947 63.384,95.025 63.432 C 95.103 63.480,95.167 63.440,95.167 63.343 C 95.167 63.118,94.886 63.114,94.748 63.336 M91.565 73.542 C 91.465 73.840,91.330 74.233,91.265 74.417 C 91.200 74.600,91.336 74.412,91.566 74.000 C 92.013 73.200,92.075 73.000,91.874 73.000 C 91.805 73.000,91.666 73.244,91.565 73.542 M90.932 75.304 C 90.467 76.204,89.816 77.749,89.973 77.583 C 90.163 77.382,91.340 74.833,91.243 74.833 C 91.206 74.833,91.066 75.045,90.932 75.304 M54.360 85.289 L 54.333 85.995 49.042 86.042 L 43.750 86.088 49.047 86.127 C 54.865 86.171,54.588 86.221,54.455 85.141 C 54.393 84.636,54.384 84.650,54.360 85.289 M27.409 95.500 C 27.409 99.121,27.431 100.602,27.458 98.792 C 27.485 96.981,27.485 94.019,27.458 92.208 C 27.431 90.398,27.409 91.879,27.409 95.500 M27.540 102.173 C 27.332 102.256,26.999 102.476,26.800 102.662 C 26.600 102.848,26.358 103.001,26.260 103.002 C 26.006 103.005,27.924 103.959,28.823 104.277 C 33.254 105.841,33.976 106.014,34.328 105.590 C 34.439 105.456,34.692 105.297,34.890 105.237 C 35.088 105.177,35.475 104.966,35.750 104.768 C 36.025 104.570,36.662 104.192,37.167 103.927 C 37.671 103.662,38.262 103.307,38.481 103.139 C 38.699 102.971,38.962 102.833,39.064 102.833 C 39.166 102.832,39.475 102.647,39.750 102.422 L 40.250 102.012 34.083 102.017 C 30.692 102.019,27.747 102.089,27.540 102.173 " stroke="none" fill="#6d74d5" fill-rule="evenodd"></path><path id="path4" d="M26.979 15.365 C 26.967 15.393,26.940 15.586,26.918 15.793 C 26.883 16.126,26.413 17.988,26.003 19.417 C 25.381 21.583,24.184 24.280,23.453 25.160 C 23.250 25.405,22.933 25.811,22.750 26.064 C 22.280 26.710,20.777 28.319,17.686 31.482 L 15.016 34.215 15.633 34.659 C 15.972 34.904,16.494 35.231,16.792 35.385 C 17.090 35.540,17.577 35.792,17.875 35.945 C 18.173 36.099,18.454 36.276,18.500 36.340 C 18.546 36.403,18.883 36.616,19.250 36.813 C 19.617 37.009,20.292 37.388,20.750 37.654 C 21.208 37.921,21.902 38.308,22.292 38.516 C 22.681 38.723,23.000 38.954,23.000 39.030 C 23.000 39.105,23.141 39.167,23.313 39.167 C 23.485 39.167,23.717 39.276,23.828 39.410 C 23.939 39.544,24.192 39.704,24.390 39.765 C 24.588 39.827,24.971 40.033,25.241 40.223 C 25.511 40.414,25.961 40.690,26.241 40.838 C 26.521 40.986,27.050 41.282,27.417 41.497 C 27.783 41.712,28.308 42.001,28.583 42.139 C 28.858 42.277,29.121 42.440,29.167 42.501 C 29.212 42.561,29.738 42.863,30.333 43.170 C 30.929 43.478,31.529 43.821,31.667 43.932 C 31.804 44.043,32.292 44.340,32.750 44.593 C 33.208 44.846,33.711 45.132,33.868 45.229 C 34.087 45.364,34.240 45.326,34.535 45.064 C 35.667 44.055,39.885 41.697,42.173 40.793 C 47.125 38.838,54.715 38.814,59.046 40.739 C 59.576 40.974,60.092 41.167,60.192 41.167 C 60.601 41.167,62.320 42.054,62.221 42.214 C 62.161 42.311,62.197 42.335,62.303 42.269 C 62.545 42.119,63.542 42.631,63.413 42.839 C 63.360 42.925,63.417 42.957,63.541 42.910 C 65.224 42.264,73.810 52.917,73.099 54.769 C 73.039 54.925,73.073 54.974,73.190 54.902 C 73.303 54.832,73.344 54.878,73.295 55.018 C 73.250 55.146,73.353 55.529,73.524 55.871 L 73.836 56.492 73.208 56.812 C 72.862 56.989,71.868 57.432,70.998 57.798 C 70.128 58.164,67.917 59.117,66.083 59.916 C 64.250 60.714,62.647 61.409,62.521 61.460 C 62.270 61.561,62.912 62.156,63.280 62.163 C 63.388 62.165,63.580 62.270,63.707 62.397 C 63.834 62.524,64.233 62.789,64.594 62.986 C 64.955 63.182,65.550 63.516,65.917 63.727 C 67.566 64.675,67.811 64.815,68.185 65.022 C 68.404 65.143,68.819 65.389,69.107 65.570 L 69.630 65.898 68.773 66.509 C 64.642 69.452,57.624 71.858,53.470 71.756 C 52.524 71.733,52.331 71.744,53.042 71.780 L 54.333 71.847 54.367 78.257 C 54.386 81.782,54.405 84.985,54.409 85.375 L 54.417 86.083 48.125 86.080 L 41.833 86.076 41.833 89.951 L 41.833 93.825 42.219 93.678 C 42.432 93.598,42.887 93.340,43.232 93.106 C 43.577 92.872,44.003 92.635,44.179 92.579 C 44.356 92.523,44.500 92.408,44.500 92.322 C 44.500 92.237,44.646 92.167,44.823 92.167 C 45.001 92.167,45.190 92.097,45.242 92.012 C 45.328 91.875,46.325 91.289,49.056 89.772 C 49.529 89.509,49.942 89.228,49.972 89.147 C 50.003 89.066,50.167 89.000,50.337 89.000 C 50.508 89.000,50.694 88.924,50.752 88.830 C 50.810 88.737,51.208 88.472,51.637 88.241 C 52.066 88.010,52.696 87.655,53.037 87.452 C 53.929 86.922,55.005 86.320,55.583 86.028 C 55.858 85.890,56.121 85.724,56.167 85.660 C 56.212 85.597,56.550 85.382,56.917 85.184 C 57.283 84.986,57.883 84.649,58.250 84.437 C 58.617 84.224,59.442 83.766,60.083 83.418 C 60.725 83.070,61.362 82.692,61.500 82.579 C 61.637 82.465,62.079 82.195,62.480 81.978 C 63.457 81.450,64.086 81.092,65.083 80.496 C 65.542 80.223,66.123 79.917,66.375 79.816 C 66.627 79.716,66.833 79.571,66.833 79.495 C 66.833 79.418,67.002 79.305,67.208 79.242 C 67.415 79.179,67.822 78.949,68.114 78.731 C 68.406 78.512,68.753 78.333,68.885 78.333 C 69.018 78.333,69.213 78.228,69.321 78.099 C 69.428 77.970,69.756 77.743,70.049 77.594 C 70.343 77.446,70.958 77.106,71.417 76.838 C 71.875 76.571,72.617 76.142,73.065 75.884 C 73.513 75.627,74.000 75.339,74.148 75.244 C 74.296 75.149,74.792 74.868,75.250 74.620 C 75.708 74.372,76.458 73.945,76.917 73.671 C 77.375 73.397,78.069 73.008,78.458 72.807 C 78.848 72.606,79.167 72.379,79.167 72.304 C 79.167 72.228,79.307 72.167,79.480 72.167 C 79.652 72.167,79.881 72.061,79.988 71.931 C 80.096 71.801,80.499 71.539,80.883 71.347 C 81.620 70.980,81.982 70.772,82.669 70.322 C 82.900 70.171,83.575 69.797,84.169 69.491 C 84.764 69.185,85.287 68.884,85.333 68.823 C 85.379 68.762,85.717 68.552,86.083 68.357 C 86.450 68.162,87.125 67.778,87.583 67.504 C 88.042 67.231,88.735 66.842,89.125 66.640 C 89.515 66.439,89.833 66.213,89.833 66.137 C 89.833 66.062,89.979 66.000,90.157 66.000 C 90.335 66.000,90.528 65.924,90.585 65.830 C 90.643 65.737,91.041 65.472,91.470 65.241 C 91.899 65.010,92.550 64.639,92.917 64.417 C 93.283 64.194,93.808 63.898,94.083 63.759 C 95.019 63.285,95.187 63.040,95.595 61.558 C 96.189 59.400,96.143 58.837,95.427 59.472 C 93.866 60.858,88.064 63.286,87.547 62.770 C 87.485 62.708,87.639 62.003,87.889 61.203 C 89.230 56.914,90.415 52.319,90.578 50.779 C 90.625 50.336,90.706 49.905,90.759 49.819 C 90.872 49.636,90.094 49.954,89.500 50.333 C 89.271 50.480,88.896 50.693,88.667 50.808 C 88.438 50.922,87.950 51.198,87.583 51.419 C 87.217 51.641,86.602 51.981,86.217 52.176 C 85.832 52.370,85.429 52.635,85.321 52.764 C 85.214 52.894,84.985 53.000,84.813 53.000 C 84.641 53.000,84.500 53.062,84.500 53.137 C 84.500 53.213,84.160 53.456,83.744 53.679 C 82.801 54.184,82.379 54.421,80.917 55.270 C 79.158 56.292,79.117 56.282,79.880 55.030 C 81.340 52.633,84.538 45.649,84.289 45.400 C 84.248 45.359,84.054 45.758,83.858 46.288 C 83.281 47.845,83.364 47.812,81.931 47.074 C 81.235 46.716,80.667 46.373,80.667 46.311 C 80.667 46.250,80.460 46.118,80.208 46.018 C 79.956 45.919,79.375 45.615,78.917 45.342 C 78.458 45.070,77.896 44.753,77.667 44.637 C 77.438 44.522,77.025 44.265,76.750 44.067 C 76.475 43.868,76.088 43.656,75.890 43.596 C 75.692 43.536,75.439 43.377,75.328 43.244 C 75.217 43.110,75.017 43.000,74.884 43.000 C 74.752 43.000,74.538 42.906,74.411 42.792 C 73.838 42.278,73.666 42.167,73.444 42.167 C 73.314 42.167,73.117 42.057,73.005 41.923 C 72.894 41.789,72.654 41.632,72.472 41.575 C 72.290 41.517,71.566 41.120,70.862 40.693 C 70.159 40.266,69.171 39.699,68.667 39.434 C 68.162 39.169,67.637 38.861,67.500 38.750 C 67.362 38.639,66.725 38.269,66.083 37.927 C 65.442 37.586,64.798 37.200,64.654 37.070 C 64.509 36.940,64.265 36.833,64.112 36.833 C 63.959 36.833,63.833 36.772,63.833 36.696 C 63.833 36.621,63.477 36.382,63.042 36.165 C 62.606 35.948,62.151 35.672,62.030 35.552 C 61.909 35.432,61.733 35.333,61.639 35.333 C 61.545 35.333,61.235 35.167,60.950 34.964 C 60.664 34.761,60.007 34.367,59.489 34.089 C 58.971 33.811,58.218 33.406,57.815 33.189 C 57.413 32.972,56.971 32.702,56.833 32.588 C 56.696 32.475,56.171 32.168,55.667 31.906 C 55.163 31.644,54.539 31.287,54.281 31.113 C 54.023 30.938,53.313 30.530,52.703 30.207 C 52.094 29.884,51.493 29.517,51.369 29.393 C 51.245 29.268,51.062 29.167,50.962 29.167 C 50.863 29.167,50.536 28.979,50.235 28.750 C 49.935 28.521,49.581 28.333,49.448 28.333 C 49.316 28.333,49.117 28.224,49.005 28.090 C 48.894 27.956,48.641 27.795,48.443 27.732 C 48.245 27.670,47.858 27.451,47.583 27.245 C 47.308 27.040,46.921 26.823,46.723 26.763 C 46.525 26.703,46.272 26.544,46.161 26.410 C 46.050 26.276,45.825 26.167,45.660 26.167 C 45.496 26.167,45.336 26.103,45.306 26.025 C 45.249 25.880,44.917 25.678,42.193 24.133 C 41.337 23.647,40.494 23.168,40.320 23.069 C 40.145 22.969,39.871 22.768,39.709 22.623 C 39.443 22.383,39.365 22.383,38.833 22.623 C 38.512 22.768,37.912 23.006,37.500 23.151 L 36.750 23.417 36.440 22.250 C 36.270 21.608,36.134 20.950,36.138 20.788 C 36.143 20.626,36.086 20.530,36.012 20.576 C 35.938 20.621,35.744 20.511,35.580 20.329 C 35.416 20.148,35.143 20.000,34.974 20.000 C 34.805 20.000,34.667 19.938,34.667 19.863 C 34.667 19.787,34.310 19.550,33.875 19.335 C 33.440 19.120,33.046 18.897,33.000 18.840 C 32.910 18.728,30.758 17.489,29.000 16.538 C 28.404 16.216,27.804 15.862,27.667 15.751 C 27.338 15.487,27.005 15.301,26.979 15.365 M89.045 16.000 C 89.045 16.412,89.078 16.581,89.118 16.375 C 89.157 16.169,89.157 15.831,89.118 15.625 C 89.078 15.419,89.045 15.588,89.045 16.000 M72.625 20.787 C 72.923 20.824,73.410 20.824,73.708 20.787 C 74.006 20.750,73.762 20.720,73.167 20.720 C 72.571 20.720,72.327 20.750,72.625 20.787 M88.709 22.750 C 88.711 23.117,88.745 23.247,88.785 23.040 C 88.824 22.832,88.823 22.532,88.781 22.373 C 88.739 22.214,88.707 22.383,88.709 22.750 M84.762 43.762 C 84.701 44.006,84.683 44.238,84.722 44.277 C 84.761 44.317,84.843 44.149,84.905 43.905 C 84.966 43.661,84.984 43.429,84.945 43.389 C 84.906 43.350,84.823 43.518,84.762 43.762 M49.764 53.679 C 49.497 53.756,49.206 53.774,49.118 53.720 C 49.029 53.665,48.989 53.718,49.029 53.837 C 49.091 54.024,49.983 54.596,51.083 55.155 C 51.267 55.248,51.792 55.549,52.250 55.824 C 52.708 56.099,53.421 56.515,53.833 56.748 C 54.246 56.982,54.958 57.393,55.417 57.662 C 55.875 57.931,56.569 58.318,56.958 58.522 C 57.348 58.726,57.667 58.954,57.667 59.030 C 57.667 59.105,57.817 59.167,58.000 59.167 C 58.183 59.167,58.333 59.228,58.333 59.302 C 58.333 59.457,59.506 60.050,59.608 59.948 C 59.727 59.828,59.469 59.333,59.331 59.418 C 59.258 59.463,59.239 59.332,59.290 59.125 C 59.341 58.919,59.322 58.806,59.248 58.874 C 59.060 59.046,58.620 58.376,58.766 58.141 C 58.845 58.013,58.811 57.994,58.664 58.085 C 58.502 58.185,58.473 58.145,58.553 57.935 C 58.613 57.778,58.602 57.687,58.528 57.733 C 58.367 57.832,56.563 55.822,56.629 55.617 C 56.654 55.539,56.603 55.520,56.516 55.574 C 56.428 55.628,56.257 55.532,56.136 55.360 C 55.403 54.317,51.304 53.236,49.764 53.679 M94.875 63.867 C 94.866 64.381,94.875 64.391,95.021 64.013 C 95.110 63.782,95.114 63.548,95.031 63.464 C 94.947 63.380,94.880 63.552,94.875 63.867 M41.738 67.667 C 41.738 69.821,41.762 70.702,41.791 69.625 C 41.820 68.548,41.820 66.785,41.791 65.708 C 41.762 64.631,41.738 65.512,41.738 67.667 M27.333 78.308 C 27.333 87.200,27.520 86.202,25.667 87.205 C 25.071 87.528,23.871 88.208,23.000 88.718 C 22.129 89.227,21.098 89.813,20.708 90.018 C 20.319 90.224,20.000 90.454,20.000 90.530 C 20.000 90.605,19.859 90.667,19.687 90.667 C 19.515 90.667,19.283 90.776,19.172 90.910 C 19.061 91.044,18.808 91.203,18.610 91.263 C 18.412 91.323,18.025 91.540,17.750 91.745 C 17.475 91.951,17.100 92.169,16.917 92.231 C 16.733 92.292,16.404 92.492,16.185 92.675 L 15.787 93.008 16.318 94.023 C 17.634 96.532,20.760 99.905,23.288 101.543 C 23.676 101.794,24.047 102.000,24.112 102.000 C 24.178 102.000,24.499 102.180,24.824 102.401 C 25.705 102.997,26.347 103.084,26.794 102.667 C 26.997 102.478,27.332 102.256,27.540 102.173 C 27.844 102.050,27.858 102.019,27.614 102.011 C 27.322 102.000,27.315 101.406,27.431 86.250 C 27.497 77.587,27.503 70.500,27.443 70.500 C 27.382 70.500,27.333 74.013,27.333 78.308 M42.375 71.788 C 42.719 71.824,43.281 71.824,43.625 71.788 C 43.969 71.752,43.688 71.723,43.000 71.723 C 42.313 71.723,42.031 71.752,42.375 71.788 M89.370 78.840 C 89.003 79.478,88.566 80.489,88.728 80.328 C 88.878 80.178,89.841 78.286,89.793 78.237 C 89.766 78.211,89.576 78.482,89.370 78.840 M88.083 81.333 C 87.851 81.792,87.699 82.167,87.744 82.167 C 87.790 82.167,88.018 81.792,88.250 81.333 C 88.482 80.875,88.635 80.500,88.589 80.500 C 88.543 80.500,88.316 80.875,88.083 81.333 M87.246 82.875 C 87.026 83.331,87.024 83.364,87.236 83.083 C 87.375 82.900,87.569 82.656,87.668 82.542 C 87.783 82.407,87.786 82.333,87.678 82.333 C 87.585 82.333,87.391 82.577,87.246 82.875 M86.567 84.042 C 86.295 84.580,86.295 84.581,86.618 84.250 C 86.797 84.067,86.944 83.823,86.944 83.708 C 86.945 83.385,86.864 83.456,86.567 84.042 M77.575 95.875 L 76.917 96.583 77.625 95.925 C 78.284 95.312,78.410 95.167,78.284 95.167 C 78.257 95.167,77.938 95.485,77.575 95.875 M47.880 107.956 C 48.318 107.990,48.993 107.990,49.380 107.955 C 49.767 107.920,49.408 107.892,48.583 107.892 C 47.758 107.893,47.442 107.922,47.880 107.956 " stroke="none" fill="#7269d4" fill-rule="evenodd"></path></g></svg>